<?xml version="1.0" encoding="UTF-8" standalone="no"?><svg xmlns="http://www.w3.org/2000/svg" xmlns:xlink="http://www.w3.org/1999/xlink" contentScriptType="application/ecmascript" contentStyleType="text/css" height="837px" preserveAspectRatio="none" style="width:3076px;height:837px;" version="1.1" viewBox="0 0 3076 837" width="3076px" zoomAndPan="magnify"><defs><filter height="300%" id="f5r9jz3cipyxp" width="300%" x="-1" y="-1"><feGaussianBlur result="blurOut" stdDeviation="2.0"/><feColorMatrix in="blurOut" result="blurOut2" type="matrix" values="0 0 0 0 0 0 0 0 0 0 0 0 0 0 0 0 0 0 .4 0"/><feOffset dx="4.0" dy="4.0" in="blurOut2" result="blurOut3"/><feBlend in="SourceGraphic" in2="blurOut3" mode="normal"/></filter></defs><g><text fill="#000000" font-family="sans-serif" font-size="18" lengthAdjust="spacingAndGlyphs" textLength="364" x="1362" y="16.708">Global Commerce Supply Chain Network</text><!--cluster Upstream (Sourcing)--><polygon fill="#FFFFFF" filter="url(#f5r9jz3cipyxp)" points="22,44.9531,191,44.9531,198,67.25,3054,67.25,3054,471.9531,22,471.9531,22,44.9531" style="stroke: #000000; stroke-width: 1.5;"/><line style="stroke: #000000; stroke-width: 1.5;" x1="22" x2="198" y1="67.25" y2="67.25"/><text fill="#000000" font-family="sans-serif" font-size="14" font-weight="bold" lengthAdjust="spacingAndGlyphs" textLength="163" x="26" y="59.9482">Upstream (Sourcing)</text><!--cluster mining_sector--><rect fill="#FFFFFF" filter="url(#f5r9jz3cipyxp)" height="104" style="stroke: #000000; stroke-width: 1.5;" width="466" x="2564" y="87.9531"/><text fill="#000000" font-family="sans-serif" font-size="14" font-weight="bold" lengthAdjust="spacingAndGlyphs" textLength="153" x="2720.5" y="102.9482">Mining &amp; Extraction</text><!--cluster mining_processing--><rect fill="#FFFFFF" filter="url(#f5r9jz3cipyxp)" height="104" style="stroke: #000000; stroke-width: 1.5;" width="437" x="2593" y="215.9531"/><text fill="#000000" font-family="sans-serif" font-size="14" font-weight="bold" lengthAdjust="spacingAndGlyphs" textLength="88" x="2767.5" y="230.9482">Processing</text><!--cluster mining_products--><rect fill="#FFFFFF" filter="url(#f5r9jz3cipyxp)" height="104" style="stroke: #000000; stroke-width: 1.5;" width="373" x="1251" y="343.9531"/><text fill="#000000" font-family="sans-serif" font-size="14" font-weight="bold" lengthAdjust="spacingAndGlyphs" textLength="71" x="1402" y="358.9482">Products</text><!--cluster oil_sector--><rect fill="#FFFFFF" filter="url(#f5r9jz3cipyxp)" height="104" style="stroke: #000000; stroke-width: 1.5;" width="252" x="2146" y="87.9531"/><text fill="#000000" font-family="sans-serif" font-size="14" font-weight="bold" lengthAdjust="spacingAndGlyphs" textLength="157" x="2193.5" y="102.9482">Oil &amp; Gas Extraction</text><!--cluster oil_processing--><rect fill="#FFFFFF" filter="url(#f5r9jz3cipyxp)" height="232" style="stroke: #000000; stroke-width: 1.5;" width="473" x="603" y="87.9531"/><text fill="#000000" font-family="sans-serif" font-size="14" font-weight="bold" lengthAdjust="spacingAndGlyphs" textLength="208" x="735.5" y="102.9482">Refining &amp; Petrochemicals</text><!--cluster oil_products--><rect fill="#FFFFFF" filter="url(#f5r9jz3cipyxp)" height="104" style="stroke: #000000; stroke-width: 1.5;" width="1469" x="1100" y="215.9531"/><text fill="#000000" font-family="sans-serif" font-size="14" font-weight="bold" lengthAdjust="spacingAndGlyphs" textLength="157" x="1756" y="230.9482">Petroleum Products</text><!--cluster const_raw--><rect fill="#FFFFFF" filter="url(#f5r9jz3cipyxp)" height="104" style="stroke: #000000; stroke-width: 1.5;" width="533" x="46" y="87.9531"/><text fill="#000000" font-family="sans-serif" font-size="14" font-weight="bold" lengthAdjust="spacingAndGlyphs" textLength="109" x="258" y="102.9482">Raw Materials</text><!--cluster const_mfg--><rect fill="#FFFFFF" filter="url(#f5r9jz3cipyxp)" height="104" style="stroke: #000000; stroke-width: 1.5;" width="482" x="97" y="215.9531"/><text fill="#000000" font-family="sans-serif" font-size="14" font-weight="bold" lengthAdjust="spacingAndGlyphs" textLength="113" x="281.5" y="230.9482">Manufacturing</text><!--cluster const_products--><rect fill="#FFFFFF" filter="url(#f5r9jz3cipyxp)" height="104" style="stroke: #000000; stroke-width: 1.5;" width="1181" x="46" y="343.9531"/><text fill="#000000" font-family="sans-serif" font-size="14" font-weight="bold" lengthAdjust="spacingAndGlyphs" textLength="178" x="547.5" y="358.9482">Construction Products</text><!--cluster Downstream (Services)--><polygon fill="#FFFFFF" filter="url(#f5r9jz3cipyxp)" points="1326,495.9531,1517,495.9531,1524,518.25,1624,518.25,1624,825.9531,1326,825.9531,1326,495.9531" style="stroke: #000000; stroke-width: 1.5;"/><line style="stroke: #000000; stroke-width: 1.5;" x1="1326" x2="1524" y1="518.25" y2="518.25"/><text fill="#000000" font-family="sans-serif" font-size="14" font-weight="bold" lengthAdjust="spacingAndGlyphs" textLength="185" x="1330" y="510.9482">Downstream (Services)</text><!--entity cu_mine--><rect fill="#FEFECE" filter="url(#f5r9jz3cipyxp)" height="52.5938" style="stroke: #000000; stroke-width: 1.5;" width="199" x="2814.5" y="122.9531"/><text fill="#000000" font-family="sans-serif" font-size="14" font-style="italic" lengthAdjust="spacingAndGlyphs" textLength="87" x="2870.5" y="145.9482">«Extraction»</text><text fill="#000000" font-family="sans-serif" font-size="14" lengthAdjust="spacingAndGlyphs" textLength="179" x="2824.5" y="162.2451">$icon(globe) Copper Mine</text><!--entity salt_mine--><rect fill="#FEFECE" filter="url(#f5r9jz3cipyxp)" height="52.5938" style="stroke: #000000; stroke-width: 1.5;" width="199" x="2580.5" y="122.9531"/><text fill="#000000" font-family="sans-serif" font-size="14" font-style="italic" lengthAdjust="spacingAndGlyphs" textLength="87" x="2636.5" y="145.9482">«Extraction»</text><text fill="#000000" font-family="sans-serif" font-size="14" lengthAdjust="spacingAndGlyphs" textLength="179" x="2590.5" y="162.2451">$icon(sun) Solar Salt Pans</text><!--entity flotation--><rect fill="#FEFECE" filter="url(#f5r9jz3cipyxp)" height="52.5938" style="stroke: #000000; stroke-width: 1.5;" width="195" x="2819.5" y="250.9531"/><text fill="#000000" font-family="sans-serif" font-size="14" font-style="italic" lengthAdjust="spacingAndGlyphs" textLength="92" x="2871" y="273.9482">«Processing»</text><text fill="#000000" font-family="sans-serif" font-size="14" lengthAdjust="spacingAndGlyphs" textLength="175" x="2829.5" y="290.2451">$icon(cog) Flotation Plant</text><!--entity salt_refinery--><rect fill="#FEFECE" filter="url(#f5r9jz3cipyxp)" height="52.5938" style="stroke: #000000; stroke-width: 1.5;" width="176" x="2609" y="250.9531"/><text fill="#000000" font-family="sans-serif" font-size="14" font-style="italic" lengthAdjust="spacingAndGlyphs" textLength="92" x="2651" y="273.9482">«Processing»</text><text fill="#000000" font-family="sans-serif" font-size="14" lengthAdjust="spacingAndGlyphs" textLength="156" x="2619" y="290.2451">$icon(beaker) Refining</text><!--entity conc--><rect fill="#FEFECE" filter="url(#f5r9jz3cipyxp)" height="52.5938" style="stroke: #000000; stroke-width: 1.5;" width="161" x="1446.5" y="378.9531"/><text fill="#000000" font-family="sans-serif" font-size="14" font-style="italic" lengthAdjust="spacingAndGlyphs" textLength="124" x="1465" y="401.9482">«ExistingProduct»</text><text fill="#000000" font-family="sans-serif" font-size="14" lengthAdjust="spacingAndGlyphs" textLength="141" x="1456.5" y="418.2451">Copper Concentrate</text><!--entity salt--><rect fill="#FEFECE" filter="url(#f5r9jz3cipyxp)" height="52.5938" style="stroke: #000000; stroke-width: 1.5;" width="144" x="1267" y="378.9531"/><text fill="#000000" font-family="sans-serif" font-size="14" font-style="italic" lengthAdjust="spacingAndGlyphs" textLength="124" x="1277" y="401.9482">«ExistingProduct»</text><text fill="#000000" font-family="sans-serif" font-size="14" lengthAdjust="spacingAndGlyphs" textLength="91" x="1293.5" y="418.2451">Industrial Salt</text><!--entity offshore--><rect fill="#FEFECE" filter="url(#f5r9jz3cipyxp)" height="52.5938" style="stroke: #000000; stroke-width: 1.5;" width="220" x="2162" y="122.9531"/><text fill="#000000" font-family="sans-serif" font-size="14" font-style="italic" lengthAdjust="spacingAndGlyphs" textLength="87" x="2228.5" y="145.9482">«Extraction»</text><text fill="#000000" font-family="sans-serif" font-size="14" lengthAdjust="spacingAndGlyphs" textLength="200" x="2172" y="162.2451">$icon(rss) Offshore Platforms</text><!--entity distillation--><rect fill="#FFFFFF" filter="url(#f5r9jz3cipyxp)" height="52.5938" style="stroke: #000000; stroke-width: 1.5;" width="194" x="619" y="122.9531"/><text fill="#000000" font-family="sans-serif" font-size="14" font-style="italic" lengthAdjust="spacingAndGlyphs" textLength="92" x="670" y="145.9482">«Processing»</text><text fill="#000000" font-family="sans-serif" font-size="14" lengthAdjust="spacingAndGlyphs" textLength="174" x="629" y="162.2451">$icon(fire) Distillation Unit</text><!--entity cracker--><rect fill="#FEFECE" filter="url(#f5r9jz3cipyxp)" height="52.5938" style="stroke: #000000; stroke-width: 1.5;" width="211" x="848.5" y="122.9531"/><text fill="#000000" font-family="sans-serif" font-size="14" font-style="italic" lengthAdjust="spacingAndGlyphs" textLength="92" x="908" y="145.9482">«Processing»</text><text fill="#000000" font-family="sans-serif" font-size="14" lengthAdjust="spacingAndGlyphs" textLength="191" x="858.5" y="162.2451">$icon(beaker) Cracking Unit</text><!--entity desulf--><rect fill="#FEFECE" filter="url(#f5r9jz3cipyxp)" height="52.5938" style="stroke: #000000; stroke-width: 1.5;" width="224" x="727" y="250.9531"/><text fill="#000000" font-family="sans-serif" font-size="14" font-style="italic" lengthAdjust="spacingAndGlyphs" textLength="92" x="793" y="273.9482">«Processing»</text><text fill="#000000" font-family="sans-serif" font-size="14" lengthAdjust="spacingAndGlyphs" textLength="204" x="737" y="290.2451">$icon(droplet) Desulfurization</text><!--entity brent--><rect fill="#FEFECE" filter="url(#f5r9jz3cipyxp)" height="52.5938" style="stroke: #000000; stroke-width: 1.5;" width="144" x="2200" y="250.9531"/><text fill="#000000" font-family="sans-serif" font-size="14" font-style="italic" lengthAdjust="spacingAndGlyphs" textLength="124" x="2210" y="273.9482">«ExistingProduct»</text><text fill="#000000" font-family="sans-serif" font-size="14" lengthAdjust="spacingAndGlyphs" textLength="105" x="2219.5" y="290.2451">Brent Crude Oil</text><!--entity naphtha--><rect fill="#FEFECE" filter="url(#f5r9jz3cipyxp)" height="52.5938" style="stroke: #000000; stroke-width: 1.5;" width="153" x="2011.5" y="250.9531"/><text fill="#000000" font-family="sans-serif" font-size="14" font-style="italic" lengthAdjust="spacingAndGlyphs" textLength="124" x="2026" y="273.9482">«ExistingProduct»</text><text fill="#000000" font-family="sans-serif" font-size="14" lengthAdjust="spacingAndGlyphs" textLength="133" x="2021.5" y="290.2451">Petroleum Naphtha</text><!--entity diesel--><rect fill="#FEFECE" filter="url(#f5r9jz3cipyxp)" height="52.5938" style="stroke: #000000; stroke-width: 1.5;" width="144" x="1653" y="250.9531"/><text fill="#000000" font-family="sans-serif" font-size="14" font-style="italic" lengthAdjust="spacingAndGlyphs" textLength="124" x="1663" y="273.9482">«ExistingProduct»</text><text fill="#000000" font-family="sans-serif" font-size="14" lengthAdjust="spacingAndGlyphs" textLength="108" x="1671" y="290.2451">Premium Diesel</text><!--entity mfo--><rect fill="#FEFECE" filter="url(#f5r9jz3cipyxp)" height="52.5938" style="stroke: #000000; stroke-width: 1.5;" width="144" x="1116" y="250.9531"/><text fill="#000000" font-family="sans-serif" font-size="14" font-style="italic" lengthAdjust="spacingAndGlyphs" textLength="124" x="1126" y="273.9482">«ExistingProduct»</text><text fill="#000000" font-family="sans-serif" font-size="14" lengthAdjust="spacingAndGlyphs" textLength="100" x="1138" y="290.2451">Marine Fuel Oil</text><!--entity bitumen--><rect fill="#FEFECE" filter="url(#f5r9jz3cipyxp)" height="52.5938" style="stroke: #000000; stroke-width: 1.5;" width="144" x="1295" y="250.9531"/><text fill="#000000" font-family="sans-serif" font-size="14" font-style="italic" lengthAdjust="spacingAndGlyphs" textLength="124" x="1305" y="273.9482">«ExistingProduct»</text><text fill="#000000" font-family="sans-serif" font-size="14" lengthAdjust="spacingAndGlyphs" textLength="115" x="1309.5" y="290.2451">Refined Bitumen</text><!--entity whitespirit--><rect fill="#FEFECE" filter="url(#f5r9jz3cipyxp)" height="52.5938" style="stroke: #000000; stroke-width: 1.5;" width="144" x="1474" y="250.9531"/><text fill="#000000" font-family="sans-serif" font-size="14" font-style="italic" lengthAdjust="spacingAndGlyphs" textLength="124" x="1484" y="273.9482">«ExistingProduct»</text><text fill="#000000" font-family="sans-serif" font-size="14" lengthAdjust="spacingAndGlyphs" textLength="77" x="1507.5" y="290.2451">White Spirit</text><!--entity sulfur--><rect fill="#FEFECE" filter="url(#f5r9jz3cipyxp)" height="52.5938" style="stroke: #000000; stroke-width: 1.5;" width="144" x="1832" y="250.9531"/><text fill="#000000" font-family="sans-serif" font-size="14" font-style="italic" lengthAdjust="spacingAndGlyphs" textLength="124" x="1842" y="273.9482">«ExistingProduct»</text><text fill="#000000" font-family="sans-serif" font-size="14" lengthAdjust="spacingAndGlyphs" textLength="96" x="1856" y="290.2451">Refined Sulfur</text><!--entity pbr--><rect fill="#FEFECE" filter="url(#f5r9jz3cipyxp)" height="52.5938" style="stroke: #000000; stroke-width: 1.5;" width="173" x="2379.5" y="250.9531"/><text fill="#000000" font-family="sans-serif" font-size="14" font-style="italic" lengthAdjust="spacingAndGlyphs" textLength="124" x="2404" y="273.9482">«ExistingProduct»</text><text fill="#000000" font-family="sans-serif" font-size="14" lengthAdjust="spacingAndGlyphs" textLength="153" x="2389.5" y="290.2451">Polybutadiene Rubber</text><!--entity g_mining--><rect fill="#FEFECE" filter="url(#f5r9jz3cipyxp)" height="52.5938" style="stroke: #000000; stroke-width: 1.5;" width="261" x="301.5" y="122.9531"/><text fill="#000000" font-family="sans-serif" font-size="14" font-style="italic" lengthAdjust="spacingAndGlyphs" textLength="87" x="388.5" y="145.9482">«Extraction»</text><text fill="#000000" font-family="sans-serif" font-size="14" lengthAdjust="spacingAndGlyphs" textLength="241" x="311.5" y="162.2451">$icon(map-marker) Gypsum Quarry</text><!--entity c_mining--><rect fill="#FEFECE" filter="url(#f5r9jz3cipyxp)" height="52.5938" style="stroke: #000000; stroke-width: 1.5;" width="204" x="62" y="122.9531"/><text fill="#000000" font-family="sans-serif" font-size="14" font-style="italic" lengthAdjust="spacingAndGlyphs" textLength="87" x="120.5" y="145.9482">«Extraction»</text><text fill="#000000" font-family="sans-serif" font-size="14" lengthAdjust="spacingAndGlyphs" textLength="184" x="72" y="162.2451">$icon(map-marker) Clay Pit</text><!--entity g_plant--><rect fill="#FEFECE" filter="url(#f5r9jz3cipyxp)" height="52.5938" style="stroke: #000000; stroke-width: 1.5;" width="238" x="325" y="250.9531"/><text fill="#000000" font-family="sans-serif" font-size="14" font-style="italic" lengthAdjust="spacingAndGlyphs" textLength="92" x="398" y="273.9482">«Processing»</text><text fill="#000000" font-family="sans-serif" font-size="14" lengthAdjust="spacingAndGlyphs" textLength="218" x="335" y="290.2451">$icon(cog) Gypsum Board Plant</text><!--entity c_kiln--><rect fill="#FEFECE" filter="url(#f5r9jz3cipyxp)" height="52.5938" style="stroke: #000000; stroke-width: 1.5;" width="177" x="112.5" y="250.9531"/><text fill="#000000" font-family="sans-serif" font-size="14" font-style="italic" lengthAdjust="spacingAndGlyphs" textLength="92" x="155" y="273.9482">«Processing»</text><text fill="#000000" font-family="sans-serif" font-size="14" lengthAdjust="spacingAndGlyphs" textLength="157" x="122.5" y="290.2451">$icon(fire) Ceramic Kiln</text><!--entity g_std--><rect fill="#FEFECE" filter="url(#f5r9jz3cipyxp)" height="52.5938" style="stroke: #000000; stroke-width: 1.5;" width="153" x="1057.5" y="378.9531"/><text fill="#000000" font-family="sans-serif" font-size="14" font-style="italic" lengthAdjust="spacingAndGlyphs" textLength="124" x="1072" y="401.9482">«ExistingProduct»</text><text fill="#000000" font-family="sans-serif" font-size="14" lengthAdjust="spacingAndGlyphs" textLength="133" x="1067.5" y="418.2451">Standard Wallboard</text><!--entity g_fire--><rect fill="#FEFECE" filter="url(#f5r9jz3cipyxp)" height="52.5938" style="stroke: #000000; stroke-width: 1.5;" width="160" x="862" y="378.9531"/><text fill="#000000" font-family="sans-serif" font-size="14" font-style="italic" lengthAdjust="spacingAndGlyphs" textLength="124" x="880" y="401.9482">«ExistingProduct»</text><text fill="#000000" font-family="sans-serif" font-size="14" lengthAdjust="spacingAndGlyphs" textLength="140" x="872" y="418.2451">Fire-Resistant Board</text><!--entity g_moist--><rect fill="#FEFECE" filter="url(#f5r9jz3cipyxp)" height="52.5938" style="stroke: #000000; stroke-width: 1.5;" width="195" x="631.5" y="378.9531"/><text fill="#000000" font-family="sans-serif" font-size="14" font-style="italic" lengthAdjust="spacingAndGlyphs" textLength="124" x="667" y="401.9482">«ExistingProduct»</text><text fill="#000000" font-family="sans-serif" font-size="14" lengthAdjust="spacingAndGlyphs" textLength="175" x="641.5" y="418.2451">Moisture-Resistant Board</text><!--entity c_porcelain--><rect fill="#FEFECE" filter="url(#f5r9jz3cipyxp)" height="52.5938" style="stroke: #000000; stroke-width: 1.5;" width="144" x="452" y="378.9531"/><text fill="#000000" font-family="sans-serif" font-size="14" font-style="italic" lengthAdjust="spacingAndGlyphs" textLength="124" x="462" y="401.9482">«ExistingProduct»</text><text fill="#000000" font-family="sans-serif" font-size="14" lengthAdjust="spacingAndGlyphs" textLength="99" x="474.5" y="418.2451">Porcelain Tiles</text><!--entity c_wall--><rect fill="#FEFECE" filter="url(#f5r9jz3cipyxp)" height="52.5938" style="stroke: #000000; stroke-width: 1.5;" width="161" x="255.5" y="378.9531"/><text fill="#000000" font-family="sans-serif" font-size="14" font-style="italic" lengthAdjust="spacingAndGlyphs" textLength="124" x="274" y="401.9482">«ExistingProduct»</text><text fill="#000000" font-family="sans-serif" font-size="14" lengthAdjust="spacingAndGlyphs" textLength="141" x="265.5" y="418.2451">Decorative Wall Tiles</text><!--entity c_floor--><rect fill="#FEFECE" filter="url(#f5r9jz3cipyxp)" height="52.5938" style="stroke: #000000; stroke-width: 1.5;" width="159" x="61.5" y="378.9531"/><text fill="#000000" font-family="sans-serif" font-size="14" font-style="italic" lengthAdjust="spacingAndGlyphs" textLength="124" x="79" y="401.9482">«ExistingProduct»</text><text fill="#000000" font-family="sans-serif" font-size="14" lengthAdjust="spacingAndGlyphs" textLength="139" x="71.5" y="418.2451">Unglazed Floor Tiles</text><!--entity dc--><rect fill="#FEFECE" filter="url(#f5r9jz3cipyxp)" height="52.5938" style="stroke: #000000; stroke-width: 1.5;" width="265" x="1342.5" y="530.9531"/><text fill="#000000" font-family="sans-serif" font-size="14" font-style="italic" lengthAdjust="spacingAndGlyphs" textLength="77" x="1436.5" y="553.9482">«Logistics»</text><text fill="#000000" font-family="sans-serif" font-size="14" lengthAdjust="spacingAndGlyphs" textLength="245" x="1352.5" y="570.2451">$icon(briefcase) Distribution Center</text><!--entity logistics--><rect fill="#FEFECE" filter="url(#f5r9jz3cipyxp)" height="52.5938" style="stroke: #000000; stroke-width: 1.5;" width="214" x="1394" y="643.9531"/><text fill="#000000" font-family="sans-serif" font-size="14" font-style="italic" lengthAdjust="spacingAndGlyphs" textLength="77" x="1462.5" y="666.9482">«Logistics»</text><text fill="#000000" font-family="sans-serif" font-size="14" lengthAdjust="spacingAndGlyphs" textLength="194" x="1404" y="683.2451">$icon(truck) Global Logistics</text><!--entity market--><rect fill="#FEFECE" filter="url(#f5r9jz3cipyxp)" height="52.5938" style="stroke: #000000; stroke-width: 1.5;" width="206" x="1398" y="756.9531"/><text fill="#000000" font-family="sans-serif" font-size="14" font-style="italic" lengthAdjust="spacingAndGlyphs" textLength="77" x="1462.5" y="779.9482">«Logistics»</text><text fill="#000000" font-family="sans-serif" font-size="14" lengthAdjust="spacingAndGlyphs" textLength="186" x="1408" y="796.2451">$icon(people) End Markets</text><!--link cu_mine to flotation--><path d="M2914.61,176.2531 C2915.09,196.3031 2915.76,224.1731 2916.26,245.4331 " fill="none" id="cu_mine-flotation" style="stroke: #A80036; stroke-width: 1.0;"/><polygon fill="#A80036" points="2916.39,250.6831,2920.1573,241.5833,2916.2615,245.6848,2912.16,241.7889,2916.39,250.6831" style="stroke: #A80036; stroke-width: 1.0;"/><!--link flotation to conc--><path d="M2868.36,304.0431 C2848.61,313.2331 2825.24,322.6331 2803,327.9531 C2576.04,382.2331 1860.86,398.9631 1612.77,403.2031 " fill="none" id="flotation-conc" style="stroke: #A80036; stroke-width: 1.0;"/><polygon fill="#A80036" points="1607.71,403.2831,1616.7772,407.1283,1612.7093,403.1974,1616.6401,399.1294,1607.71,403.2831" style="stroke: #A80036; stroke-width: 1.0;"/><!--link salt_mine to salt_refinery--><path d="M2683.48,176.2531 C2686.2,196.3831 2689.98,224.4031 2692.85,245.7031 " fill="none" id="salt_mine-salt_refinery" style="stroke: #A80036; stroke-width: 1.0;"/><polygon fill="#A80036" points="2693.52,250.6831,2696.2758,241.2277,2692.8489,245.7284,2688.3482,242.3014,2693.52,250.6831" style="stroke: #A80036; stroke-width: 1.0;"/><!--link salt_refinery to salt--><path d="M2643.78,304.0031 C2621.26,313.4931 2594.4,323.1231 2569,327.9531 C2537.89,333.8731 1458.97,325.7231 1429,335.9531 C1405.87,343.8431 1383.96,360.2531 1367.55,375.0331 " fill="none" id="salt_refinery-salt" style="stroke: #A80036; stroke-width: 1.0;"/><polygon fill="#A80036" points="1363.5,378.7431,1372.834,375.6004,1367.1822,375.3606,1367.422,369.7089,1363.5,378.7431" style="stroke: #A80036; stroke-width: 1.0;"/><!--link offshore to brent--><path d="M2272,176.2531 C2272,196.3031 2272,224.1731 2272,245.4331 " fill="none" id="offshore-brent" style="stroke: #A80036; stroke-width: 1.0;"/><polygon fill="#A80036" points="2272,250.6831,2276,241.6831,2272,245.6831,2268,241.6831,2272,250.6831" style="stroke: #A80036; stroke-width: 1.0;"/><!--link brent to distillation--><path d="M2247.51,250.7331 C2230.75,235.0831 2207.09,216.5031 2182,207.9531 C2146.48,195.8531 867.73,207.6331 831,199.9531 C809.72,195.5031 787.51,186.9731 768.35,178.2331 " fill="none" id="brent-distillation" style="stroke: #A80036; stroke-width: 1.0;"/><polygon fill="#A80036" points="763.55,176.0031,770.0321,183.4182,768.086,178.1066,773.3976,176.1605,763.55,176.0031" style="stroke: #A80036; stroke-width: 1.0;"/><!--link distillation to naphtha--><path d="M763.55,175.9931 C783.74,185.4831 807.92,195.1131 831,199.9531 C862.62,206.5831 1963.32,197.8431 1994,207.9531 C2018.07,215.8831 2041.13,232.5031 2058.39,247.3831 " fill="none" id="distillation-naphtha" style="stroke: #A80036; stroke-width: 1.0;"/><polygon fill="#A80036" points="2062.2,250.7231,2058.0608,241.7863,2058.4371,247.4306,2052.7928,247.8069,2062.2,250.7231" style="stroke: #A80036; stroke-width: 1.0;"/><!--link distillation to diesel--><path d="M763.56,175.9631 C783.75,185.4431 807.93,195.0831 831,199.9531 C874.76,209.1931 1593.73,193.3331 1636,207.9531 C1658.93,215.8831 1680.6,232.2931 1696.82,247.0631 " fill="none" id="distillation-diesel" style="stroke: #A80036; stroke-width: 1.0;"/><polygon fill="#A80036" points="1700.82,250.7731,1696.9521,241.7156,1697.1581,247.3687,1691.505,247.5747,1700.82,250.7731" style="stroke: #A80036; stroke-width: 1.0;"/><!--link distillation to mfo--><path d="M764.17,175.9631 C784.26,185.3231 808.19,194.8631 831,199.9531 C884.17,211.8131 1023.81,192.3331 1076,207.9531 C1103.64,216.2231 1131.32,233.0631 1152.25,247.9731 " fill="none" id="distillation-mfo" style="stroke: #A80036; stroke-width: 1.0;"/><polygon fill="#A80036" points="1156.35,250.9231,1151.3739,242.4238,1152.2891,248.0061,1146.7067,248.9213,1156.35,250.9231" style="stroke: #A80036; stroke-width: 1.0;"/><!--link distillation to bitumen--><path d="M763.86,176.0031 C784,185.4231 808.05,195.0131 831,199.9531 C879.56,210.4131 1231.12,191.5331 1278,207.9531 C1300.9,215.9731 1322.57,232.3831 1338.79,247.1331 " fill="none" id="distillation-bitumen" style="stroke: #A80036; stroke-width: 1.0;"/><polygon fill="#A80036" points="1342.8,250.8431,1338.9145,241.7931,1339.1315,247.4458,1333.4788,247.6628,1342.8,250.8431" style="stroke: #A80036; stroke-width: 1.0;"/><!--link distillation to whitespirit--><path d="M763.84,176.0631 C783.98,185.4931 808.04,195.0731 831,199.9531 C865.02,207.1931 1424.15,196.5431 1457,207.9531 C1479.92,215.9131 1501.59,232.3231 1517.81,247.0831 " fill="none" id="distillation-whitespirit" style="stroke: #A80036; stroke-width: 1.0;"/><polygon fill="#A80036" points="1521.81,250.8031,1517.9245,241.7531,1518.1415,247.4058,1512.4888,247.6228,1521.81,250.8031" style="stroke: #A80036; stroke-width: 1.0;"/><!--link distillation to desulf--><path d="M741.19,176.2531 C761.25,196.8131 789.35,225.5931 810.29,247.0431 " fill="none" id="distillation-desulf" style="stroke: #A80036; stroke-width: 1.0;"/><polygon fill="#A80036" points="813.85,250.6831,810.4259,241.4486,810.3575,247.1051,804.701,247.0367,813.85,250.6831" style="stroke: #A80036; stroke-width: 1.0;"/><!--link desulf to sulfur--><path d="M915.28,250.8831 C970.61,233.2031 1047.68,211.8331 1117.5,203.9531 C1155.04,199.7131 1759.96,199.7131 1797.5,203.9531 C1828.26,207.4231 1856.77,228.4631 1876.53,247.1431 " fill="none" id="desulf-sulfur" style="stroke: #A80036; stroke-width: 1.0;"/><polygon fill="#A80036" points="1880.37,250.8431,1876.6861,241.7092,1876.7777,247.3653,1871.1216,247.4569,1880.37,250.8431" style="stroke: #A80036; stroke-width: 1.0;"/><!--link naphtha to cracker--><path d="M2061.67,250.8031 C2044.05,235.3831 2019.49,217.0431 1994,207.9531 C1908.31,177.4031 1314.68,159.3531 1064.64,153.0231 " fill="none" id="naphtha-cracker" style="stroke: #A80036; stroke-width: 1.0;"/><polygon fill="#A80036" points="1059.52,152.8931,1068.4142,157.1232,1064.5183,153.0217,1068.6198,149.1258,1059.52,152.8931" style="stroke: #A80036; stroke-width: 1.0;"/><!--link cracker to pbr--><path d="M1059.63,155.0031 C1267.59,163.9131 1744.75,184.1931 2146,199.9531 C2170,200.8931 2339.13,200.6331 2362,207.9531 C2387.65,216.1631 2412.97,232.6031 2432.2,247.3231 " fill="none" id="cracker-pbr" style="stroke: #A80036; stroke-width: 1.0;"/><polygon fill="#A80036" points="2436.45,250.6231,2431.7929,241.9449,2432.5002,247.5574,2426.8877,248.2646,2436.45,250.6231" style="stroke: #A80036; stroke-width: 1.0;"/><!--link g_mining to g_plant--><path d="M434.46,176.2531 C436.37,196.3831 439.04,224.4031 441.07,245.7031 " fill="none" id="g_mining-g_plant" style="stroke: #A80036; stroke-width: 1.0;"/><polygon fill="#A80036" points="441.55,250.6831,444.6825,241.3457,441.078,245.7055,436.7182,242.1009,441.55,250.6831" style="stroke: #A80036; stroke-width: 1.0;"/><!--link g_plant to g_std--><path d="M511.07,303.9631 C539.06,313.3931 572.18,322.9731 603,327.9531 C650.94,335.6931 993.96,320.4931 1040,335.9531 C1064.02,344.0231 1087.09,360.6431 1104.35,375.4931 " fill="none" id="g_plant-g_std" style="stroke: #A80036; stroke-width: 1.0;"/><polygon fill="#A80036" points="1108.17,378.8231,1104.0476,369.8785,1104.4133,375.5235,1098.7683,375.8892,1108.17,378.8231" style="stroke: #A80036; stroke-width: 1.0;"/><!--link g_plant to g_fire--><path d="M511.89,303.9931 C539.72,313.3031 572.5,322.7931 603,327.9531 C655.84,336.8831 793.16,319.0131 844,335.9531 C868.72,344.1931 892.75,360.8131 910.84,375.6231 " fill="none" id="g_plant-g_fire" style="stroke: #A80036; stroke-width: 1.0;"/><polygon fill="#A80036" points="914.83,378.9431,910.4735,370.1102,910.9877,375.7436,905.3543,376.2578,914.83,378.9431" style="stroke: #A80036; stroke-width: 1.0;"/><!--link g_plant to g_moist--><path d="M530.99,303.9531 C558.05,312.9231 587.68,323.8331 614,335.9531 C638.83,347.3931 665.12,362.7831 686.29,376.0731 " fill="none" id="g_plant-g_moist" style="stroke: #A80036; stroke-width: 1.0;"/><polygon fill="#A80036" points="690.73,378.8831,685.2701,370.6862,686.507,376.2062,680.987,377.443,690.73,378.8831" style="stroke: #A80036; stroke-width: 1.0;"/><!--link c_mining to c_kiln--><path d="M171.58,176.2531 C177.49,196.3831 185.72,224.4031 191.97,245.7031 " fill="none" id="c_mining-c_kiln" style="stroke: #A80036; stroke-width: 1.0;"/><polygon fill="#A80036" points="193.43,250.6831,194.7153,240.9185,192.013,245.8881,187.0433,243.1857,193.43,250.6831" style="stroke: #A80036; stroke-width: 1.0;"/><!--link c_kiln to c_porcelain--><path d="M246.5,304.0331 C265.01,313.2131 286.97,322.6231 308,327.9531 C362.39,341.7431 381.42,316.3431 434,335.9531 C456.73,344.4331 478.48,360.6731 494.9,375.2231 " fill="none" id="c_kiln-c_porcelain" style="stroke: #A80036; stroke-width: 1.0;"/><polygon fill="#A80036" points="498.96,378.8731,494.9291,369.8869,495.2372,375.5354,489.5887,375.8435,498.96,378.8731" style="stroke: #A80036; stroke-width: 1.0;"/><!--link c_kiln to c_wall--><path d="M228.65,304.2531 C250.67,324.8131 281.51,353.5931 304.49,375.0431 " fill="none" id="c_kiln-c_wall" style="stroke: #A80036; stroke-width: 1.0;"/><polygon fill="#A80036" points="308.39,378.6831,304.541,369.6175,304.7352,375.271,299.0817,375.4652,308.39,378.6831" style="stroke: #A80036; stroke-width: 1.0;"/><!--link c_kiln to c_floor--><path d="M188.71,304.2531 C179.09,324.4731 165.67,352.6431 155.52,373.9731 " fill="none" id="c_kiln-c_floor" style="stroke: #A80036; stroke-width: 1.0;"/><polygon fill="#A80036" points="153.27,378.6831,160.743,372.2679,155.4141,374.1662,153.5159,368.8373,153.27,378.6831" style="stroke: #A80036; stroke-width: 1.0;"/><!--link conc to logistics--><path d="M1501.24,432.3131 C1482.8,449.0631 1456.47,469.6131 1429,479.9531 C1407.31,488.1231 1340.75,470.9431 1325,487.9531 C1296.01,519.2631 1302.36,547.7831 1325,583.9531 C1341.53,610.3531 1368.79,628.8131 1396.99,641.6331 " fill="none" id="conc-logistics" style="stroke: #A80036; stroke-width: 1.0;"/><polygon fill="#A80036" points="1401.89,643.8031,1395.2669,636.5137,1397.3145,641.787,1392.0412,643.8346,1401.89,643.8031" style="stroke: #A80036; stroke-width: 1.0;"/><!--link salt to logistics--><path d="M1321.37,432.1631 C1298.65,468.7831 1265.61,536.7531 1297,583.9531 C1318.12,615.7031 1353.54,635.6831 1389,648.2531 " fill="none" id="salt-logistics" style="stroke: #A80036; stroke-width: 1.0;"/><polygon fill="#A80036" points="1393.77,649.9031,1386.5631,643.1904,1389.0425,648.2749,1383.958,650.7544,1393.77,649.9031" style="stroke: #A80036; stroke-width: 1.0;"/><!--link diesel to logistics--><path d="M1735.29,303.9831 C1756.26,360.5131 1796.91,498.0731 1735,583.9531 C1706.69,623.2231 1658.41,644.4931 1613.03,656.0031 " fill="none" id="diesel-logistics" style="stroke: #A80036; stroke-width: 1.0;"/><polygon fill="#A80036" points="1608.08,657.2231,1617.7767,658.9477,1612.9341,656.0239,1615.8579,651.1813,1608.08,657.2231" style="stroke: #A80036; stroke-width: 1.0;"/><!--link mfo to logistics--><path d="M1225.25,304.2031 C1240.83,313.5331 1259.58,322.9931 1278,327.9531 C1296.57,332.9531 1610.52,322.2431 1624,335.9531 C1701.29,414.5331 1676.25,486.3731 1625,583.9531 C1612.01,608.6931 1588.26,627.6731 1565,641.3931 " fill="none" id="mfo-logistics" style="stroke: #A80036; stroke-width: 1.0;"/><polygon fill="#A80036" points="1560.66,643.8931,1570.4541,642.8557,1564.9897,641.3925,1566.453,635.9281,1560.66,643.8931" style="stroke: #A80036; stroke-width: 1.0;"/><!--link pbr to logistics--><path d="M2414.09,304.0231 C2300.32,359.4931 2019.69,493.1631 1776,583.9531 C1717.34,605.8131 1650.27,626.7431 1597.06,642.4231 " fill="none" id="pbr-logistics" style="stroke: #A80036; stroke-width: 1.0;"/><polygon fill="#A80036" points="1591.95,643.9231,1601.71,645.2431,1596.75,642.5231,1599.47,637.5631,1591.95,643.9231" style="stroke: #A80036; stroke-width: 1.0;"/><!--link bitumen to logistics--><path d="M1404.28,304.0931 C1419.86,313.4031 1438.6,322.8831 1457,327.9531 C1469.33,331.3531 1678.12,326.7531 1687,335.9531 C1763.57,415.2331 1746.48,491.1531 1687,583.9531 C1669.8,610.7931 1641.81,629.3231 1612.72,642.0631 " fill="none" id="bitumen-logistics" style="stroke: #A80036; stroke-width: 1.0;"/><polygon fill="#A80036" points="1608.04,644.0631,1617.8876,644.2203,1612.6409,642.1056,1614.7556,636.8589,1608.04,644.0631" style="stroke: #A80036; stroke-width: 1.0;"/><!--link g_std to dc--><path d="M1169.9,432.0631 C1192.43,447.3531 1222.53,466.3731 1251,479.9531 C1291.99,499.5031 1339.33,516.4231 1379.9,529.3531 " fill="none" id="g_std-dc" style="stroke: #A80036; stroke-width: 1.0;"/><polygon fill="#A80036" points="1384.82,530.9131,1377.4573,524.3717,1380.0556,529.3965,1375.0307,531.9948,1384.82,530.9131" style="stroke: #A80036; stroke-width: 1.0;"/><!--link c_porcelain to dc--><path d="M547.3,432.2131 C564.08,448.9131 588.22,469.4531 614,479.9531 C741.41,531.8331 1127.93,548.6431 1337.08,554.0031 " fill="none" id="c_porcelain-dc" style="stroke: #A80036; stroke-width: 1.0;"/><polygon fill="#A80036" points="1342.3,554.1331,1333.394,549.9279,1337.3013,554.0185,1333.2107,557.9258,1342.3,554.1331" style="stroke: #A80036; stroke-width: 1.0;"/><!--link dc to logistics--><path d="M1481.03,584.1931 C1484.84,600.4531 1489.78,621.5331 1493.79,638.6631 " fill="none" id="dc-logistics" style="stroke: #A80036; stroke-width: 1.0;"/><polygon fill="#A80036" points="1495,643.8431,1496.8386,634.1674,1493.858,638.9753,1489.0501,635.9946,1495,643.8431" style="stroke: #A80036; stroke-width: 1.0;"/><!--link logistics to market--><path d="M1501,697.1931 C1501,713.4531 1501,734.5331 1501,751.6631 " fill="none" id="logistics-market" style="stroke: #A80036; stroke-width: 1.0;"/><polygon fill="#A80036" points="1501,756.8431,1505.0257,747.8546,1501.0143,751.8431,1497.0257,747.8317,1501,756.8431" style="stroke: #A80036; stroke-width: 1.0;"/><!--
@startuml

title Global Commerce Supply Chain Network

package "Upstream (Sourcing)" {
rectangle "Mining & Extraction" as mining_sector {
    rectangle "$icon(globe) Copper Mine" as cu_mine <<Extraction>>
    rectangle "$icon(sun) Solar Salt Pans" as salt_mine <<Extraction>>
}

rectangle "Processing" as mining_processing {
    rectangle "$icon(cog) Flotation Plant" as flotation <<Processing>>
    rectangle "$icon(beaker) Refining" as salt_refinery <<Processing>>
}

rectangle "Products" as mining_products {
    rectangle "Copper Concentrate" as conc <<ExistingProduct>>
    rectangle "Industrial Salt" as salt <<ExistingProduct>>
}

cu_mine - -> flotation
flotation - -> conc

salt_mine - -> salt_refinery
salt_refinery - -> salt
rectangle "Oil & Gas Extraction" as oil_sector {
    rectangle "$icon(rss) Offshore Platforms" as offshore <<Extraction>>
}

rectangle "Refining & Petrochemicals" as oil_processing {
    rectangle "$icon(fire) Distillation Unit" as distillation <<Processing>> #White
    rectangle "$icon(beaker) Cracking Unit" as cracker <<Processing>>
    rectangle "$icon(droplet) Desulfurization" as desulf <<Processing>>
}

rectangle "Petroleum Products" as oil_products {
    rectangle "Brent Crude Oil" as brent <<ExistingProduct>>
    
    rectangle "Petroleum Naphtha" as naphtha <<ExistingProduct>>
    rectangle "Premium Diesel" as diesel <<ExistingProduct>>
    rectangle "Marine Fuel Oil" as mfo <<ExistingProduct>>
    rectangle "Refined Bitumen" as bitumen <<ExistingProduct>>
    rectangle "White Spirit" as whitespirit <<ExistingProduct>>
    rectangle "Refined Sulfur" as sulfur <<ExistingProduct>>
    
    rectangle "Polybutadiene Rubber" as pbr <<ExistingProduct>>
}

offshore - -> brent
brent - -> distillation

distillation - -> naphtha
distillation - -> diesel
distillation - -> mfo
distillation - -> bitumen
distillation - -> whitespirit
distillation - -> desulf

desulf - -> sulfur

naphtha - -> cracker
cracker - -> pbr
rectangle "Raw Materials" as const_raw {
    rectangle "$icon(map-marker) Gypsum Quarry" as g_mining <<Extraction>>
    rectangle "$icon(map-marker) Clay Pit" as c_mining <<Extraction>>
}

rectangle "Manufacturing" as const_mfg {
    rectangle "$icon(cog) Gypsum Board Plant" as g_plant <<Processing>>
    rectangle "$icon(fire) Ceramic Kiln" as c_kiln <<Processing>>
}

rectangle "Construction Products" as const_products {
    rectangle "Standard Wallboard" as g_std <<ExistingProduct>>
    rectangle "Fire-Resistant Board" as g_fire <<ExistingProduct>>
    rectangle "Moisture-Resistant Board" as g_moist <<ExistingProduct>>

    rectangle "Porcelain Tiles" as c_porcelain <<ExistingProduct>>
    rectangle "Decorative Wall Tiles" as c_wall <<ExistingProduct>>
    rectangle "Unglazed Floor Tiles" as c_floor <<ExistingProduct>>
}

g_mining - -> g_plant
g_plant - -> g_std
g_plant - -> g_fire
g_plant - -> g_moist

c_mining - -> c_kiln
c_kiln - -> c_porcelain
c_kiln - -> c_wall
c_kiln - -> c_floor
}


package "Downstream (Services)" {
    rectangle "$icon(briefcase) Distribution Center" as dc <<Logistics>>
    rectangle "$icon(truck) Global Logistics" as logistics <<Logistics>>
    rectangle "$icon(people) End Markets" as market <<Logistics>>
}

conc - -> logistics
salt - -> logistics

diesel - -> logistics
mfo - -> logistics
pbr - -> logistics
bitumen - -> logistics

g_std - -> dc
c_porcelain - -> dc

dc - -> logistics
logistics - -> market

@enduml

PlantUML version 1.2018.13(Mon Nov 26 20:41:51 IRST 2018)
(GPL source distribution)
Java Runtime: OpenJDK Runtime Environment
JVM: OpenJDK 64-Bit Server VM
Java Version: 11.0.27+6-post-Ubuntu-0ubuntu120.04
Operating System: Linux
OS Version: 5.15.0-139-generic
Default Encoding: UTF-8
Language: en
Country: US
--></g></svg>